<svg xmlns="http://www.w3.org/2000/svg" viewBox="0 0 1200 900" role="img" aria-labelledby="title desc">
  <title id="title">Smart Allocator room calendar thumbnail</title>
  <desc id="desc">Hotel room calendar blocks reshuffled to open bookable three-night windows.</desc>
  <rect width="1200" height="900" fill="#f8fafc" />
  <rect x="72" y="72" width="1056" height="756" rx="42" fill="#ffffff" stroke="#e2e8f0" stroke-width="3" />
  <text x="112" y="150" fill="#1f3256" font-family="Arial, sans-serif" font-size="54" font-weight="700">The Tetris of Hotel Rooms</text>
  <text x="112" y="205" fill="#64748b" font-family="Arial, sans-serif" font-size="26">Same bookings. Better allocation. More sellable windows.</text>

  <g transform="translate(112 290)">
    <text x="0" y="-34" fill="#64748b" font-family="Arial, sans-serif" font-size="24" font-weight="700">BEFORE</text>
    <rect x="0" y="0" width="420" height="330" rx="18" fill="#f1f5f9" />
    <g fill="none" stroke="#cbd5e1" stroke-width="2">
      <path d="M0 82.5H420M0 165H420M0 247.5H420" />
      <path d="M70 0V330M140 0V330M210 0V330M280 0V330M350 0V330" />
    </g>
    <rect x="0" y="18" width="140" height="47" rx="10" fill="#3b82f6" />
    <rect x="210" y="18" width="70" height="47" rx="10" fill="#3b82f6" />
    <rect x="70" y="100" width="140" height="47" rx="10" fill="#1e3a8a" />
    <rect x="280" y="100" width="70" height="47" rx="10" fill="#1e3a8a" />
    <rect x="140" y="182" width="140" height="47" rx="10" fill="#3b82f6" />
    <rect x="350" y="182" width="70" height="47" rx="10" fill="#3b82f6" />
    <rect x="0" y="264" width="70" height="47" rx="10" fill="#1e3a8a" />
    <rect x="210" y="264" width="140" height="47" rx="10" fill="#1e3a8a" />
  </g>

  <g transform="translate(668 290)">
    <text x="0" y="-34" fill="#166534" font-family="Arial, sans-serif" font-size="24" font-weight="700">AFTER</text>
    <rect x="0" y="0" width="420" height="330" rx="18" fill="#f0fdf4" />
    <g fill="none" stroke="#bbf7d0" stroke-width="2">
      <path d="M0 82.5H420M0 165H420M0 247.5H420" />
      <path d="M70 0V330M140 0V330M210 0V330M280 0V330M350 0V330" />
    </g>
    <rect x="0" y="18" width="210" height="47" rx="10" fill="#3b82f6" />
    <rect x="210" y="18" width="140" height="47" rx="10" fill="#1e3a8a" />
    <rect x="0" y="100" width="140" height="47" rx="10" fill="#1e3a8a" />
    <rect x="140" y="100" width="210" height="47" rx="10" fill="#3b82f6" />
    <rect x="0" y="182" width="280" height="47" rx="10" fill="#3b82f6" />
    <rect x="0" y="264" width="140" height="47" rx="10" fill="#1e3a8a" />
    <rect x="210" y="182" width="210" height="129" rx="14" fill="none" stroke="#10b981" stroke-width="8" stroke-dasharray="18 12" />
    <text x="258" y="256" fill="#047857" font-family="Arial, sans-serif" font-size="27" font-weight="700">OPEN</text>
  </g>

  <path d="M565 443h70" stroke="#c48a5b" stroke-width="7" stroke-linecap="round" />
  <path d="M612 420l25 23-25 23" fill="none" stroke="#c48a5b" stroke-width="7" stroke-linecap="round" stroke-linejoin="round" />
</svg>
